<svg width="49" height="49" viewBox="0 0 49 49" fill="none" xmlns="http://www.w3.org/2000/svg">
<g style="mix-blend-mode:multiply" opacity="0.5">
<rect x="5" y="5" width="44" height="44" rx="8" fill="url(#paint0_linear_278_17249)"/>
</g>
<g filter="url(#filter0_b_278_17249)">
<rect width="44" height="44" rx="8" fill="url(#paint1_linear_278_17249)" fill-opacity="0.7"/>
</g>
<path d="M8.39256 29.9502C7.82507 29.9502 7.41973 29.751 7.17652 29.3527C6.93331 28.9544 6.94142 28.473 7.20084 27.9087L13.6215 13.3444C13.8323 12.8631 14.0836 12.5228 14.3755 12.3237C14.6835 12.1079 15.0321 12 15.4212 12C15.7942 12 16.1265 12.1079 16.4184 12.3237C16.7265 12.5228 16.9859 12.8631 17.1967 13.3444L23.6417 27.9087C23.9011 28.4896 23.9173 28.9793 23.6903 29.3776C23.4633 29.7593 23.0742 29.9502 22.5229 29.9502C22.0689 29.9502 21.7122 29.8423 21.4528 29.6266C21.2096 29.3942 20.9907 29.0456 20.7961 28.5809L19.5801 25.6929H11.2138L10.022 28.5809C9.81127 29.0622 9.59238 29.4108 9.36539 29.6266C9.13839 29.8423 8.81412 29.9502 8.39256 29.9502ZM15.3726 15.6598L12.2839 23.1535H18.51L15.4212 15.6598H15.3726Z" fill="white"/>
<path d="M29.7009 30C28.8416 30 28.0714 29.834 27.3905 29.5021C26.7257 29.1535 26.1987 28.6888 25.8096 28.1079C25.4367 27.527 25.2502 26.8714 25.2502 26.1411C25.2502 25.2448 25.4772 24.5394 25.9312 24.0249C26.3852 23.4938 27.1229 23.112 28.1444 22.8797C29.1659 22.6473 30.5359 22.5311 32.2546 22.5311H33.1058V22.0083C33.1058 21.1784 32.9275 20.5809 32.5708 20.2158C32.2141 19.8506 31.6142 19.668 30.771 19.668C30.3008 19.668 29.7901 19.7261 29.2388 19.8423C28.7038 19.9585 28.1363 20.1577 27.5364 20.4398C27.1473 20.6224 26.823 20.6473 26.5636 20.5145C26.3041 20.3651 26.1258 20.1411 26.0285 19.8423C25.9474 19.527 25.9636 19.2116 26.0771 18.8963C26.2069 18.5809 26.4582 18.3485 26.8311 18.1992C27.5769 17.8838 28.2903 17.6598 28.9713 17.527C29.6685 17.3942 30.3008 17.3278 30.8683 17.3278C32.6032 17.3278 33.8922 17.7427 34.7353 18.5726C35.5784 19.3859 36 20.6556 36 22.3817V28.3568C36 29.4191 35.5298 29.9502 34.5894 29.9502C33.6328 29.9502 33.1545 29.4191 33.1545 28.3568V27.8091C32.8788 28.4896 32.4411 29.029 31.8412 29.4274C31.2412 29.8091 30.5278 30 29.7009 30ZM30.3333 27.8589C31.1277 27.8589 31.7844 27.5768 32.3032 27.0124C32.8383 26.4481 33.1058 25.7344 33.1058 24.8714V24.3237H32.2789C30.7548 24.3237 29.6928 24.4481 29.0929 24.6971C28.5092 24.9295 28.2174 25.361 28.2174 25.9917C28.2174 26.5394 28.4038 26.9876 28.7767 27.3361C29.1497 27.6846 29.6685 27.8589 30.3333 27.8589Z" fill="white"/>
<defs>
<filter id="filter0_b_278_17249" x="-3" y="-3" width="50" height="50" filterUnits="userSpaceOnUse" color-interpolation-filters="sRGB">
<feFlood flood-opacity="0" result="BackgroundImageFix"/>
<feGaussianBlur in="BackgroundImage" stdDeviation="1.5"/>
<feComposite in2="SourceAlpha" operator="in" result="effect1_backgroundBlur_278_17249"/>
<feBlend mode="normal" in="SourceGraphic" in2="effect1_backgroundBlur_278_17249" result="shape"/>
</filter>
<linearGradient id="paint0_linear_278_17249" x1="5" y1="45.8833" x2="56.8716" y2="28.5323" gradientUnits="userSpaceOnUse">
<stop stop-color="#FD5B00"/>
<stop offset="1" stop-color="#FD8300"/>
</linearGradient>
<linearGradient id="paint1_linear_278_17249" x1="43.6538" y1="43.6538" x2="0" y2="0" gradientUnits="userSpaceOnUse">
<stop stop-color="#FC671F"/>
<stop offset="1" stop-color="#A40089"/>
</linearGradient>
</defs>
</svg>
