<svg width="527" height="126" viewBox="0 0 527 126" fill="none" xmlns="http://www.w3.org/2000/svg">
<path fill-rule="evenodd" clip-rule="evenodd" d="M430.443 121.086C429.244 121.086 428.11 120.947 427.044 120.672C425.994 120.382 425.087 119.962 424.32 119.412C424.053 119.234 423.894 119.024 423.845 118.781C423.794 118.538 423.819 118.312 423.92 118.102C424.037 117.892 424.202 117.754 424.42 117.69C424.636 117.609 424.887 117.657 425.17 117.835C425.919 118.369 426.72 118.749 427.57 118.975C428.418 119.201 429.377 119.314 430.443 119.314C431.943 119.314 433.052 119.047 433.768 118.514C434.502 117.965 434.868 117.245 434.868 116.355C434.868 115.645 434.602 115.078 434.068 114.658C433.552 114.237 432.677 113.906 431.444 113.664L428.844 113.155C427.277 112.83 426.102 112.305 425.319 111.578C424.553 110.834 424.17 109.847 424.17 108.618C424.17 107.6 424.436 106.71 424.969 105.95C425.519 105.191 426.278 104.601 427.244 104.18C428.21 103.76 429.327 103.549 430.594 103.549C431.643 103.549 432.618 103.694 433.517 103.986C434.435 104.261 435.26 104.681 435.992 105.247C436.226 105.425 436.359 105.635 436.392 105.878C436.443 106.104 436.41 106.314 436.292 106.509C436.176 106.702 436.009 106.832 435.792 106.896C435.576 106.945 435.317 106.88 435.018 106.702C434.351 106.201 433.652 105.845 432.918 105.635C432.202 105.425 431.419 105.319 430.569 105.319C429.252 105.319 428.202 105.619 427.419 106.217C426.636 106.799 426.245 107.575 426.245 108.546C426.245 109.322 426.486 109.936 426.969 110.389C427.468 110.841 428.277 111.174 429.394 111.383L431.994 111.917C433.676 112.257 434.918 112.774 435.717 113.469C436.534 114.148 436.942 115.078 436.942 116.259C436.942 117.213 436.675 118.054 436.143 118.781C435.625 119.509 434.877 120.074 433.892 120.479C432.926 120.883 431.776 121.086 430.443 121.086ZM338 119.776C338 120.502 338.375 120.866 339.125 120.866H343.949C346.799 120.866 348.999 120.131 350.548 118.66C352.098 117.188 352.873 115.069 352.873 112.304C352.873 109.541 352.098 107.43 350.548 105.975C348.999 104.503 346.799 103.767 343.949 103.767H339.125C338.375 103.767 338 104.131 338 104.859V119.776ZM343.798 119.169H340.049V105.466H343.798C348.398 105.466 350.697 107.745 350.697 112.304C350.697 116.88 348.398 119.169 343.798 119.169ZM357.451 119.459C358.568 120.543 360.083 121.085 362 121.085C362.717 121.085 363.449 120.98 364.2 120.769C364.966 120.56 365.625 120.26 366.175 119.873C366.524 119.645 366.691 119.387 366.674 119.097C366.674 118.789 366.542 118.563 366.275 118.418C366.024 118.271 365.708 118.32 365.325 118.563C364.791 118.919 364.242 119.169 363.675 119.314C363.109 119.444 362.55 119.509 362 119.509C360.701 119.509 359.684 119.161 358.95 118.465C358.218 117.754 357.818 116.727 357.751 115.386H366.024C366.607 115.386 366.899 115.135 366.899 114.633C366.899 112.838 366.432 111.432 365.5 110.412C364.566 109.378 363.276 108.86 361.625 108.86C360.475 108.86 359.459 109.119 358.576 109.636C357.71 110.139 357.025 110.857 356.526 111.795C356.026 112.718 355.776 113.784 355.776 114.997C355.776 116.872 356.334 118.36 357.451 119.459ZM358.95 111.358C359.617 110.663 360.526 110.317 361.675 110.317C362.758 110.317 363.592 110.648 364.175 111.31C364.774 111.973 365.1 112.904 365.15 114.1H357.776C357.892 112.968 358.285 112.054 358.95 111.358ZM374.179 121.085C373.429 121.085 372.67 120.996 371.904 120.819C371.155 120.624 370.454 120.318 369.805 119.896C369.504 119.718 369.355 119.492 369.355 119.217C369.372 118.927 369.488 118.7 369.705 118.538C369.922 118.376 370.197 118.376 370.53 118.538C371.18 118.927 371.804 119.201 372.405 119.363C373.021 119.509 373.629 119.581 374.23 119.581C375.18 119.581 375.895 119.411 376.379 119.072C376.862 118.732 377.104 118.271 377.104 117.689C377.104 117.236 376.945 116.88 376.629 116.622C376.312 116.348 375.812 116.137 375.129 115.992L372.854 115.506C370.788 115.069 369.755 114.034 369.755 112.401C369.755 111.335 370.189 110.478 371.055 109.831C371.938 109.185 373.088 108.86 374.503 108.86C375.221 108.86 375.912 108.957 376.579 109.152C377.245 109.33 377.845 109.621 378.379 110.025C378.662 110.219 378.786 110.454 378.754 110.729C378.719 111.004 378.587 111.221 378.354 111.383C378.136 111.528 377.871 111.505 377.553 111.31C377.053 110.987 376.546 110.752 376.028 110.607C375.512 110.445 375.004 110.365 374.503 110.365C373.571 110.365 372.862 110.543 372.379 110.898C371.896 111.254 371.655 111.722 371.655 112.304C371.655 113.21 372.271 113.792 373.504 114.051L375.779 114.512C376.845 114.738 377.653 115.102 378.203 115.603C378.754 116.089 379.029 116.752 379.029 117.592C379.029 118.676 378.587 119.533 377.704 120.163C376.821 120.777 375.645 121.085 374.179 121.085ZM382.039 105.029C382.039 105.837 382.481 106.242 383.364 106.242C384.247 106.242 384.689 105.837 384.689 105.029C384.689 104.236 384.247 103.841 383.364 103.841C382.481 103.841 382.039 104.236 382.039 105.029ZM382.363 119.921C382.363 120.633 382.697 120.988 383.364 120.988C384.047 120.988 384.388 120.633 384.388 119.921V110.001C384.388 109.305 384.047 108.958 383.364 108.958C382.697 108.958 382.363 109.305 382.363 110.001V119.921ZM393.797 125.451C392.914 125.451 392.048 125.345 391.198 125.136C390.364 124.942 389.606 124.627 388.923 124.19C388.674 124.044 388.523 123.866 388.474 123.656C388.44 123.462 388.474 123.267 388.574 123.074C388.674 122.896 388.815 122.766 388.998 122.686C389.198 122.605 389.406 122.621 389.624 122.735C390.356 123.17 391.055 123.47 391.722 123.632C392.389 123.793 393.047 123.874 393.697 123.874C396.097 123.874 397.296 122.677 397.296 120.285V118.199C396.947 118.942 396.397 119.533 395.647 119.97C394.914 120.39 394.072 120.6 393.122 120.6C392.005 120.6 391.039 120.349 390.223 119.848C389.406 119.347 388.774 118.66 388.323 117.787C387.889 116.897 387.673 115.87 387.673 114.707C387.673 113.542 387.889 112.523 388.323 111.65C388.774 110.76 389.406 110.073 390.223 109.588C391.039 109.104 392.005 108.86 393.122 108.86C394.072 108.86 394.914 109.063 395.647 109.467C396.38 109.872 396.921 110.437 397.271 111.165V109.903C397.271 109.241 397.605 108.909 398.272 108.909C398.937 108.909 399.271 109.241 399.271 109.903V120.018C399.271 121.829 398.805 123.187 397.871 124.093C396.955 124.998 395.597 125.451 393.797 125.451ZM393.498 118.999C394.664 118.999 395.589 118.611 396.272 117.834C396.955 117.058 397.296 116.015 397.296 114.707C397.296 113.397 396.955 112.362 396.272 111.602C395.589 110.826 394.664 110.437 393.498 110.437C392.348 110.437 391.431 110.826 390.747 111.602C390.064 112.362 389.724 113.397 389.724 114.707C389.724 116.015 390.064 117.058 390.747 117.834C391.431 118.611 392.348 118.999 393.498 118.999ZM403.319 120.018C403.319 120.697 403.651 121.036 404.318 121.036C405.001 121.036 405.343 120.697 405.343 120.018V114.148C405.343 113.032 405.667 112.143 406.318 111.48C406.984 110.801 407.875 110.462 408.992 110.462C409.959 110.462 410.658 110.72 411.092 111.238C411.543 111.739 411.767 112.54 411.767 113.639V120.018C411.767 120.697 412.108 121.036 412.792 121.036C413.459 121.036 413.792 120.697 413.792 120.018V113.517C413.792 110.412 412.35 108.86 409.467 108.86C408.55 108.86 407.726 109.046 406.993 109.419C406.26 109.791 405.693 110.348 405.294 111.093V109.903C405.294 109.241 404.96 108.909 404.293 108.909C403.643 108.909 403.319 109.241 403.319 109.903V120.018ZM441.876 124.967C442.01 125.257 442.267 125.403 442.65 125.403C442.934 125.403 443.15 125.346 443.301 125.233C443.468 125.12 443.617 124.917 443.751 124.627L450.149 110.268C450.299 109.912 450.308 109.597 450.175 109.322C450.041 109.047 449.783 108.91 449.4 108.91C449.117 108.91 448.899 108.966 448.75 109.08C448.599 109.193 448.458 109.394 448.324 109.686L444.526 118.636L440.752 109.686C440.534 109.169 440.193 108.91 439.726 108.91C439.276 108.91 438.968 109.047 438.801 109.322C438.652 109.597 438.66 109.92 438.826 110.292L443.425 120.672L441.9 124.021C441.751 124.375 441.743 124.691 441.876 124.967ZM456.896 121.085C456.146 121.085 455.387 120.996 454.621 120.819C453.871 120.624 453.171 120.318 452.521 119.896C452.221 119.718 452.072 119.492 452.072 119.217C452.088 118.927 452.205 118.7 452.421 118.538C452.639 118.376 452.912 118.376 453.246 118.538C453.897 118.927 454.521 119.201 455.12 119.363C455.738 119.509 456.345 119.581 456.945 119.581C457.895 119.581 458.612 119.411 459.095 119.072C459.579 118.732 459.82 118.271 459.82 117.689C459.82 117.236 459.662 116.88 459.345 116.622C459.028 116.348 458.529 116.137 457.846 115.992L455.571 115.506C453.505 115.069 452.472 114.034 452.472 112.401C452.472 111.335 452.904 110.478 453.771 109.831C454.655 109.185 455.805 108.86 457.22 108.86C457.937 108.86 458.629 108.957 459.295 109.152C459.962 109.33 460.561 109.621 461.095 110.025C461.379 110.219 461.503 110.454 461.47 110.729C461.436 111.004 461.303 111.221 461.069 111.383C460.853 111.528 460.586 111.505 460.27 111.31C459.77 110.987 459.262 110.752 458.745 110.607C458.229 110.445 457.72 110.365 457.22 110.365C456.288 110.365 455.579 110.543 455.096 110.898C454.612 111.254 454.372 111.722 454.372 112.304C454.372 113.21 454.987 113.792 456.221 114.051L458.496 114.512C459.562 114.738 460.37 115.102 460.92 115.603C461.47 116.089 461.744 116.752 461.744 117.592C461.744 118.676 461.303 119.533 460.421 120.163C459.536 120.777 458.362 121.085 456.896 121.085ZM466.608 119.993C467.325 120.721 468.4 121.085 469.833 121.085C470.099 121.085 470.392 121.053 470.708 120.988C471.04 120.939 471.307 120.883 471.507 120.819C471.691 120.753 471.815 120.641 471.882 120.479C471.966 120.318 472.007 120.14 472.007 119.945C472.007 119.67 471.958 119.476 471.858 119.363C471.758 119.25 471.632 119.201 471.483 119.217C471.316 119.217 471.124 119.25 470.908 119.314C470.691 119.379 470.425 119.411 470.108 119.411C469.208 119.411 468.557 119.177 468.158 118.708C467.758 118.223 467.558 117.52 467.558 116.598V110.607H470.708C471.291 110.607 471.583 110.348 471.583 109.831C471.583 109.33 471.291 109.079 470.708 109.079H467.558V106.29C467.558 105.627 467.225 105.296 466.559 105.296C465.876 105.296 465.534 105.627 465.534 106.29V109.079H463.859C463.275 109.079 462.983 109.33 462.983 109.831C462.983 110.348 463.275 110.607 463.859 110.607H465.534V116.791C465.534 118.182 465.892 119.25 466.608 119.993ZM479.299 121.085C477.382 121.085 475.867 120.543 474.75 119.459C473.633 118.36 473.076 116.872 473.076 114.997C473.076 113.784 473.325 112.718 473.825 111.795C474.326 110.857 475.009 110.139 475.875 109.636C476.758 109.119 477.774 108.86 478.924 108.86C480.575 108.86 481.865 109.378 482.799 110.412C483.733 111.432 484.198 112.838 484.198 114.633C484.198 115.135 483.906 115.386 483.323 115.386H475.05C475.117 116.727 475.517 117.754 476.25 118.465C476.983 119.161 478 119.509 479.299 119.509C479.849 119.509 480.408 119.444 480.974 119.314C481.541 119.169 482.09 118.919 482.624 118.563C483.007 118.32 483.323 118.271 483.574 118.418C483.841 118.563 483.974 118.789 483.974 119.097C483.99 119.387 483.823 119.645 483.474 119.873C482.924 120.26 482.265 120.56 481.499 120.769C480.748 120.98 480.016 121.085 479.299 121.085ZM478.974 110.317C477.825 110.317 476.917 110.663 476.25 111.358C475.584 112.054 475.192 112.968 475.075 114.1H482.449C482.399 112.904 482.074 111.973 481.474 111.31C480.891 110.648 480.057 110.317 478.974 110.317ZM487.428 120.018C487.428 120.697 487.762 121.036 488.427 121.036C489.112 121.036 489.453 120.697 489.453 120.018V114.197C489.453 113.065 489.736 112.159 490.303 111.48C490.886 110.801 491.677 110.462 492.678 110.462C493.577 110.462 494.219 110.72 494.602 111.238C495.002 111.739 495.202 112.531 495.202 113.614V120.018C495.202 120.697 495.534 121.036 496.201 121.036C496.885 121.036 497.226 120.697 497.226 120.018V114.197C497.226 113.065 497.518 112.159 498.101 111.48C498.684 110.801 499.467 110.462 500.451 110.462C501.351 110.462 501.993 110.72 502.376 111.238C502.776 111.739 502.976 112.531 502.976 113.614V120.018C502.976 120.697 503.308 121.036 503.975 121.036C504.658 121.036 505 120.697 505 120.018V113.517C505 110.412 503.65 108.86 500.951 108.86C500.017 108.86 499.193 109.079 498.476 109.516C497.76 109.936 497.218 110.518 496.851 111.263C496.319 109.661 495.102 108.86 493.202 108.86C492.335 108.86 491.577 109.055 490.927 109.443C490.278 109.814 489.769 110.356 489.403 111.068V109.903C489.403 109.241 489.069 108.909 488.403 108.909C487.753 108.909 487.428 109.241 487.428 109.903V120.018Z" fill="#60809F"/>
<path fill-rule="evenodd" clip-rule="evenodd" d="M0 32C0 14.3269 14.3269 0 32 0H93C110.673 0 125 14.3269 125 32V93C125 110.673 110.673 125 93 125H32C23.6165 125 15.986 121.776 10.2805 116.501C18.4784 109.889 27.1052 106.706 36.4251 106.173C48.6999 105.472 57.7503 101.179 60.7412 99.121C58.2679 98.7618 57.5019 97.9087 57.428 97.5271C79.7237 91.6976 95.028 69.1399 99.8933 58.5898C97.4293 60.1572 96.5078 59.2108 96.3551 58.5417C110.671 43.1069 110.365 23.744 108.423 15.9919C105.084 21.1405 95.2622 25.3971 86.7068 29.1048C84.5726 30.0296 82.5173 30.9203 80.6611 31.7822C73.2233 35.2357 69.1863 41.4587 68.0976 44.1385C67.5997 42.8655 68.0323 40.972 68.3109 40.1843C50.0946 46.0059 36.9547 64.8462 32.6618 73.5386L32.2376 68.2756C22.4736 77.043 19.3138 90.8099 18.9545 96.5974C23.8997 91.0548 30.2448 87.7703 38.3877 83.5552C42.1592 81.6029 46.3164 79.4509 50.8989 76.7824C62.4799 70.0386 71.9264 60.6783 75.2021 56.8411C64.459 72.7407 56.8787 77.3239 42.6381 85.9342L42.6378 85.9344C39.1281 88.0564 35.2139 90.4231 30.748 93.2641C21.8718 98.9106 14.1246 106.691 8.01322 114.182C3.02644 108.539 0 101.123 0 93V32ZM150.603 96.8142C148.201 96.8142 147 95.5442 147 93.0042V33.9029C147 31.301 148.109 30 150.326 30C151.25 30 151.958 30.1859 152.451 30.5576C152.944 30.8673 153.498 31.4558 154.114 32.3232L192.179 83.3398V33.7171C192.179 31.239 193.38 30 195.783 30C198.062 30 199.201 31.239 199.201 33.7171V93.0971C199.201 95.5751 198.185 96.8142 196.152 96.8142C195.228 96.8142 194.489 96.6283 193.935 96.2566C193.38 95.8849 192.795 95.2964 192.179 94.491L154.114 43.2885V93.0042C154.114 95.5442 152.944 96.8142 150.603 96.8142ZM231.837 96.9999C224.754 96.9999 219.149 94.9245 215.022 90.7738C210.895 86.5612 208.831 80.8617 208.831 73.6754C208.831 69.029 209.755 64.9403 211.603 61.4091C213.451 57.8159 215.976 55.0591 219.179 53.1386C222.444 51.1562 226.201 50.165 230.451 50.165C236.549 50.165 241.322 52.1474 244.772 56.1122C248.221 60.0152 249.946 65.4049 249.946 72.2815C249.946 74.2019 248.868 75.1622 246.712 75.1622H216.13C216.377 80.3041 217.855 84.238 220.565 86.9638C223.275 89.6277 227.033 90.9597 231.837 90.9597C233.87 90.9597 235.933 90.7119 238.027 90.2163C240.121 89.6587 242.154 88.6985 244.125 87.3355C245.542 86.4063 246.712 86.2204 247.636 86.778C248.621 87.3355 249.114 88.2029 249.114 89.3799C249.176 90.4951 248.56 91.4863 247.266 92.3536C245.234 93.8404 242.801 94.9865 239.967 95.7919C237.196 96.5972 234.486 96.9999 231.837 96.9999ZM230.636 55.7405C226.386 55.7405 223.029 57.0725 220.565 59.7364C218.101 62.4003 216.654 65.9005 216.223 70.2371H243.478C243.293 65.6527 242.092 62.0905 239.875 59.5505C237.719 57.0105 234.639 55.7405 230.636 55.7405ZM271.401 94.6768C274.112 96.2256 277.222 97 280.733 97C284.737 97 288.217 96.0398 291.173 94.1193C294.191 92.1988 296.501 89.5039 298.102 86.0347C299.766 82.5035 300.597 78.3528 300.597 73.5825C300.597 68.7503 299.766 64.5996 298.102 61.1304C296.501 57.5992 294.191 54.9043 291.173 53.0458C288.217 51.1253 284.737 50.1651 280.733 50.1651C277.284 50.1651 274.204 50.9394 271.494 52.4882C268.784 54.037 266.782 56.1433 265.488 58.8072V33.81C265.488 31.27 264.226 30 261.7 30C259.237 30 258.005 31.27 258.005 33.81V92.9112C258.005 95.5132 259.237 96.8142 261.7 96.8142C264.164 96.8142 265.396 95.5132 265.396 92.9112V88.0791C266.689 90.8669 268.691 93.0661 271.401 94.6768ZM289.233 86.4993C286.708 89.473 283.351 90.9598 279.162 90.9598C274.974 90.9598 271.617 89.473 269.092 86.4993C266.566 83.4637 265.304 79.1581 265.304 73.5825C265.304 67.945 266.566 63.6394 269.092 60.6657C271.617 57.6921 274.974 56.2053 279.162 56.2053C283.351 56.2053 286.708 57.6921 289.233 60.6657C291.758 63.6394 293.021 67.945 293.021 73.5825C293.021 79.1581 291.758 83.4637 289.233 86.4993ZM312.886 96.8141C310.36 96.8141 309.098 95.5131 309.098 92.9111V54.1608C309.098 51.6208 310.299 50.3508 312.701 50.3508C315.165 50.3508 316.397 51.6208 316.397 54.1608V59.0859C317.629 56.2361 319.538 54.0679 322.125 52.581C324.712 51.0323 327.792 50.1959 331.364 50.072C333.335 49.8862 334.382 50.8774 334.505 53.0457C334.69 55.214 333.581 56.422 331.179 56.6698L329.701 56.8557C325.451 57.2274 322.217 58.5903 320 60.9444C317.783 63.2366 316.674 66.3961 316.674 70.4229V92.9111C316.674 95.5131 315.411 96.8141 312.886 96.8141ZM344.809 95.2343C347.272 96.4114 350.044 96.9999 353.124 96.9999C356.388 96.9999 359.222 96.2255 361.624 94.6767C364.088 93.128 365.905 91.0216 367.075 88.3577V92.9111C367.075 95.5131 368.276 96.8141 370.678 96.8141C372.957 96.8141 374.097 95.5131 374.097 92.9111V67.7281C374.097 61.7188 372.68 57.2893 369.847 54.4396C367.075 51.5898 362.794 50.165 357.004 50.165C354.602 50.165 352.046 50.4747 349.336 51.0942C346.687 51.7137 344.039 52.7049 341.39 54.0679C340.466 54.5015 339.85 55.152 339.542 56.0193C339.296 56.8247 339.296 57.63 339.542 58.4354C339.85 59.1788 340.343 59.7364 341.02 60.1081C341.76 60.4178 342.653 60.2939 343.7 59.7364C346.04 58.4974 348.289 57.5991 350.444 57.0415C352.662 56.484 354.848 56.2052 357.004 56.2052C360.453 56.2052 362.948 57.0725 364.488 58.8071C366.089 60.4798 366.89 63.2366 366.89 67.0776V69.9583H363.934C357.158 69.9583 351.799 70.392 347.857 71.2593C343.977 72.0646 341.174 73.4276 339.45 75.348C337.787 77.2685 336.955 79.8705 336.955 83.1539C336.955 85.7558 337.664 88.1099 339.08 90.2163C340.497 92.3226 342.406 93.9953 344.809 95.2343ZM363.379 87.5214C361.039 90.0614 358.02 91.3314 354.325 91.3314C351.307 91.3314 348.905 90.526 347.118 88.9153C345.394 87.3046 344.531 85.2292 344.531 82.6892C344.531 80.7068 345.086 79.158 346.194 78.0429C347.365 76.8658 349.367 76.0605 352.2 75.6268C355.095 75.1312 359.037 74.8834 364.026 74.8834H366.89V77.6712C366.89 81.6361 365.72 84.9195 363.379 87.5214ZM400.361 96.9999C397.589 96.9999 394.787 96.6592 391.953 95.9777C389.182 95.2343 386.595 94.0572 384.192 92.4465C383.084 91.765 382.529 90.8977 382.529 89.8446C382.591 88.7294 383.022 87.8621 383.823 87.2426C384.624 86.6231 385.64 86.6231 386.872 87.2426C389.274 88.7294 391.584 89.7826 393.801 90.4021C396.08 90.9597 398.328 91.2385 400.546 91.2385C404.057 91.2385 406.705 90.588 408.491 89.287C410.278 87.986 411.171 86.2204 411.171 83.9902C411.171 82.2556 410.586 80.8926 409.415 79.9014C408.245 78.8483 406.397 78.0429 403.872 77.4853L395.464 75.6268C387.827 73.9541 384.008 69.9893 384.008 63.7322C384.008 59.6435 385.609 56.36 388.812 53.882C392.077 51.404 396.327 50.165 401.562 50.165C404.211 50.165 406.767 50.5367 409.231 51.2801C411.694 51.9615 413.912 53.0766 415.883 54.6254C416.93 55.3688 417.392 56.2671 417.269 57.3203C417.145 58.3735 416.653 59.2098 415.79 59.8293C414.99 60.3869 414.004 60.2939 412.834 59.5505C410.986 58.3115 409.107 57.4132 407.198 56.8557C405.289 56.2361 403.41 55.9264 401.562 55.9264C398.113 55.9264 395.495 56.6079 393.709 57.9708C391.923 59.3337 391.029 61.1303 391.029 63.3605C391.029 66.8298 393.308 69.06 397.866 70.0512L406.274 71.8168C410.216 72.6841 413.203 74.078 415.236 75.9985C417.269 77.857 418.285 80.397 418.285 83.6185C418.285 87.7692 416.653 91.0526 413.388 93.4687C410.124 95.8228 405.781 96.9999 400.361 96.9999ZM426.918 92.9112C426.918 95.5132 428.15 96.8142 430.614 96.8142C433.139 96.8142 434.402 95.5132 434.402 92.9112V74.9764H434.587L455.098 94.0264C456.022 94.9556 456.822 95.6681 457.5 96.1637C458.239 96.5973 459.163 96.8142 460.272 96.8142C461.627 96.8142 462.582 96.2256 463.136 95.0485C463.752 93.8715 463.413 92.6634 462.12 91.4244L442.348 72.7462L460.364 55.5548C461.473 54.3777 461.781 53.2316 461.288 52.1165C460.857 50.9394 459.902 50.3509 458.424 50.3509C457.315 50.3509 456.422 50.5677 455.745 51.0014C455.067 51.435 454.328 52.0546 453.527 52.8599L434.587 71.0735H434.402V33.81C434.402 31.27 433.139 30 430.614 30C428.15 30 426.918 31.27 426.918 33.81V92.9112ZM484.027 96.9999C480.947 96.9999 478.176 96.4114 475.712 95.2343C473.31 93.9953 471.4 92.3226 469.984 90.2163C468.567 88.1099 467.859 85.7558 467.859 83.1539C467.859 79.8705 468.69 77.2685 470.353 75.348C472.078 73.4276 474.88 72.0646 478.761 71.2593C482.703 70.392 488.062 69.9583 494.837 69.9583H497.793V67.0776C497.793 63.2366 496.993 60.4798 495.391 58.8071C493.851 57.0725 491.357 56.2052 487.908 56.2052C485.752 56.2052 483.565 56.484 481.348 57.0415C479.192 57.5991 476.944 58.4974 474.603 59.7364C473.556 60.2939 472.663 60.4178 471.924 60.1081C471.246 59.7364 470.754 59.1788 470.446 58.4354C470.199 57.63 470.199 56.8247 470.446 56.0193C470.754 55.152 471.37 54.5015 472.293 54.0679C474.942 52.7049 477.591 51.7137 480.239 51.0942C482.949 50.4747 485.505 50.165 487.908 50.165C493.697 50.165 497.978 51.5898 500.75 54.4396C503.583 57.2893 505 61.7188 505 67.7281V92.9111C505 95.5131 503.861 96.8141 501.582 96.8141C499.179 96.8141 497.978 95.5131 497.978 92.9111V88.3577C496.808 91.0216 494.991 93.128 492.527 94.6767C490.125 96.2255 487.292 96.9999 484.027 96.9999ZM485.228 91.3314C488.924 91.3314 491.942 90.0614 494.283 87.5214C496.623 84.9195 497.793 81.6361 497.793 77.6712V74.8834H494.929C489.94 74.8834 485.998 75.1312 483.103 75.6268C480.27 76.0605 478.268 76.8658 477.098 78.0429C475.989 79.158 475.435 80.7068 475.435 82.6892C475.435 85.2292 476.297 87.3046 478.022 88.9153C479.808 90.526 482.21 91.3314 485.228 91.3314Z" fill="url(#paint0_linear_285_17290)"/>
<path d="M520.106 96.6781C519.702 96.6781 519.5 96.4762 519.5 96.0724V89.6057C519.5 89.4038 519.553 89.2553 519.66 89.1603C519.779 89.0534 519.922 89 520.088 89C520.266 89 520.397 89.0297 520.48 89.0891C520.575 89.1485 520.664 89.2553 520.747 89.4097L523.259 93.9347L525.753 89.4097C525.836 89.2553 525.925 89.1485 526.02 89.0891C526.115 89.0297 526.252 89 526.43 89C526.584 89 526.715 89.0534 526.822 89.1603C526.941 89.2553 527 89.4038 527 89.6057V96.0724C527 96.4762 526.81 96.6781 526.43 96.6781C526.026 96.6781 525.824 96.4762 525.824 96.0724V91.4762L523.722 95.253C523.615 95.443 523.461 95.538 523.259 95.538C523.069 95.538 522.914 95.443 522.796 95.253L520.694 91.4941V96.0724C520.694 96.4762 520.498 96.6781 520.106 96.6781ZM515.224 96.6781C514.797 96.6781 514.583 96.4525 514.583 96.0012V90.1936H512.606C512.202 90.1936 512 90.0095 512 89.6413C512 89.2732 512.202 89.0891 512.606 89.0891H517.879C518.271 89.0891 518.467 89.2732 518.467 89.6413C518.467 90.0095 518.271 90.1936 517.879 90.1936H515.901V96.0012C515.901 96.4525 515.676 96.6781 515.224 96.6781Z" fill="#60809F"/>
<defs>
<linearGradient id="paint0_linear_285_17290" x1="0" y1="62.5" x2="505" y2="62.5" gradientUnits="userSpaceOnUse">
<stop stop-color="#FC671F"/>
<stop offset="0.510417" stop-color="#A40089"/>
<stop offset="1" stop-color="#2463B2"/>
</linearGradient>
</defs>
</svg>
